<?xml version="1.0" encoding="UTF-8" standalone="no"?>
<!DOCTYPE svg PUBLIC "-//W3C//DTD SVG 1.1//EN"
 "http://www.w3.org/Graphics/SVG/1.1/DTD/svg11.dtd">
<!-- Generated by graphviz version 2.43.0 (0)
 -->
<!-- Title: %3 Pages: 1 -->
<svg width="3078pt" height="116pt"
 viewBox="0.00 0.00 3078.36 116.00" xmlns="http://www.w3.org/2000/svg" xmlns:xlink="http://www.w3.org/1999/xlink">
<g id="graph0" class="graph" transform="scale(1 1) rotate(0) translate(4 112)">
<title>%3</title>
<polygon fill="white" stroke="transparent" points="-4,4 -4,-112 3074.36,-112 3074.36,4 -4,4"/>
<!-- 0 -->
<g id="node1" class="node">
<title>0</title>
<ellipse fill="none" stroke="black" cx="2823.38" cy="-90" rx="246.96" ry="18"/>
<text text-anchor="middle" x="2823.38" y="-86.3" font-family="Times,serif" font-size="14.00">0x0000..0000:math_u256_oracle:div_mod_wrapper</text>
</g>
<!-- 1 -->
<g id="node2" class="node">
<title>1</title>
<ellipse fill="none" stroke="black" cx="1374.38" cy="-18" rx="127.28" ry="18"/>
<text text-anchor="middle" x="1374.38" y="-14.3" font-family="Times,serif" font-size="14.00">0x0000..0001:string:utf8</text>
</g>
<!-- 0&#45;&gt;1 -->
<g id="edge1" class="edge">
<title>0&#45;&gt;1</title>
<path fill="none" stroke="black" d="M2653.36,-76.94C2624.67,-75.12 2595.18,-73.4 2567.38,-72 2098.36,-48.44 1979.53,-72.95 1511.38,-36 1498.72,-35 1485.43,-33.69 1472.31,-32.23"/>
<polygon fill="black" stroke="black" points="1472.66,-28.75 1462.33,-31.09 1471.87,-35.7 1472.66,-28.75"/>
</g>
<!-- 2 -->
<g id="node3" class="node">
<title>2</title>
<ellipse fill="none" stroke="black" cx="1696.38" cy="-18" rx="176.27" ry="18"/>
<text text-anchor="middle" x="1696.38" y="-14.3" font-family="Times,serif" font-size="14.00">0x0000..0000:oracle:crash_because</text>
</g>
<!-- 0&#45;&gt;2 -->
<g id="edge2" class="edge">
<title>0&#45;&gt;2</title>
<path fill="none" stroke="black" d="M2649.89,-77.15C2622.29,-75.36 2594.06,-73.59 2567.38,-72 2263.05,-53.9 2186.46,-57.88 1882.38,-36 1865.35,-34.77 1847.45,-33.33 1829.77,-31.82"/>
<polygon fill="black" stroke="black" points="1829.65,-28.3 1819.39,-30.92 1829.05,-35.27 1829.65,-28.3"/>
</g>
<!-- 3 -->
<g id="node4" class="node">
<title>3</title>
<ellipse fill="none" stroke="black" cx="2823.38" cy="-18" rx="170.87" ry="18"/>
<text text-anchor="middle" x="2823.38" y="-14.3" font-family="Times,serif" font-size="14.00">0x0000..0000:math_u256:div_mod</text>
</g>
<!-- 0&#45;&gt;3 -->
<g id="edge3" class="edge">
<title>0&#45;&gt;3</title>
<path fill="none" stroke="black" d="M2823.38,-71.7C2823.38,-63.98 2823.38,-54.71 2823.38,-46.11"/>
<polygon fill="black" stroke="black" points="2826.88,-46.1 2823.38,-36.1 2819.88,-46.1 2826.88,-46.1"/>
</g>
<!-- 4 -->
<g id="node5" class="node">
<title>4</title>
<ellipse fill="none" stroke="black" cx="1798.38" cy="-90" rx="229.36" ry="18"/>
<text text-anchor="middle" x="1798.38" y="-86.3" font-family="Times,serif" font-size="14.00">0x0000..0000:math_u256_oracle:shlw_wrapper</text>
</g>
<!-- 4&#45;&gt;1 -->
<g id="edge5" class="edge">
<title>4&#45;&gt;1</title>
<path fill="none" stroke="black" d="M1704.81,-73.55C1633.1,-61.71 1534.77,-45.48 1464.05,-33.8"/>
<polygon fill="black" stroke="black" points="1464.26,-30.29 1453.83,-32.12 1463.12,-37.2 1464.26,-30.29"/>
</g>
<!-- 4&#45;&gt;2 -->
<g id="edge6" class="edge">
<title>4&#45;&gt;2</title>
<path fill="none" stroke="black" d="M1773.69,-72.05C1760.51,-63.01 1744.09,-51.74 1729.79,-41.93"/>
<polygon fill="black" stroke="black" points="1731.42,-38.8 1721.2,-36.03 1727.46,-44.58 1731.42,-38.8"/>
</g>
<!-- 5 -->
<g id="node6" class="node">
<title>5</title>
<ellipse fill="none" stroke="black" cx="2044.38" cy="-18" rx="153.27" ry="18"/>
<text text-anchor="middle" x="2044.38" y="-14.3" font-family="Times,serif" font-size="14.00">0x0000..0000:math_u256:shlw</text>
</g>
<!-- 4&#45;&gt;5 -->
<g id="edge4" class="edge">
<title>4&#45;&gt;5</title>
<path fill="none" stroke="black" d="M1856.37,-72.5C1893.14,-62.04 1940.79,-48.48 1978.92,-37.63"/>
<polygon fill="black" stroke="black" points="1980.24,-40.89 1988.9,-34.79 1978.32,-34.16 1980.24,-40.89"/>
</g>
<!-- 6 -->
<g id="node7" class="node">
<title>6</title>
<ellipse fill="none" stroke="black" cx="231.38" cy="-90" rx="231.26" ry="18"/>
<text text-anchor="middle" x="231.38" y="-86.3" font-family="Times,serif" font-size="14.00">0x0000..0000:math_u256_oracle:shrw_wrapper</text>
</g>
<!-- 6&#45;&gt;1 -->
<g id="edge8" class="edge">
<title>6&#45;&gt;1</title>
<path fill="none" stroke="black" d="M392.39,-77.06C418.78,-75.26 445.84,-73.5 471.38,-72 812.05,-51.94 898.37,-65.19 1238.38,-36 1250.63,-34.95 1263.48,-33.63 1276.19,-32.19"/>
<polygon fill="black" stroke="black" points="1276.8,-35.64 1286.33,-31.02 1275.99,-28.69 1276.8,-35.64"/>
</g>
<!-- 6&#45;&gt;2 -->
<g id="edge9" class="edge">
<title>6&#45;&gt;2</title>
<path fill="none" stroke="black" d="M390.44,-76.92C417.44,-75.1 445.2,-73.38 471.38,-72 932.79,-47.67 1049.24,-65.04 1510.38,-36 1527.99,-34.89 1546.52,-33.49 1564.78,-31.96"/>
<polygon fill="black" stroke="black" points="1565.23,-35.43 1574.89,-31.1 1564.63,-28.46 1565.23,-35.43"/>
</g>
<!-- 7 -->
<g id="node8" class="node">
<title>7</title>
<ellipse fill="none" stroke="black" cx="231.38" cy="-18" rx="155.17" ry="18"/>
<text text-anchor="middle" x="231.38" y="-14.3" font-family="Times,serif" font-size="14.00">0x0000..0000:math_u256:shrw</text>
</g>
<!-- 6&#45;&gt;7 -->
<g id="edge7" class="edge">
<title>6&#45;&gt;7</title>
<path fill="none" stroke="black" d="M231.38,-71.7C231.38,-63.98 231.38,-54.71 231.38,-46.11"/>
<polygon fill="black" stroke="black" points="234.88,-46.1 231.38,-36.1 227.88,-46.1 234.88,-46.1"/>
</g>
<!-- 8 -->
<g id="node9" class="node">
<title>8</title>
<ellipse fill="none" stroke="black" cx="752.38" cy="-90" rx="271.85" ry="18"/>
<text text-anchor="middle" x="752.38" y="-86.3" font-family="Times,serif" font-size="14.00">0x0000..0000:math_u256_oracle:checked_shlw_wrapper</text>
</g>
<!-- 8&#45;&gt;1 -->
<g id="edge11" class="edge">
<title>8&#45;&gt;1</title>
<path fill="none" stroke="black" d="M890.71,-74.5C987.99,-64.16 1121.2,-49.71 1238.38,-36 1249.53,-34.7 1261.19,-33.29 1272.79,-31.88"/>
<polygon fill="black" stroke="black" points="1273.46,-35.32 1282.96,-30.63 1272.61,-28.37 1273.46,-35.32"/>
</g>
<!-- 8&#45;&gt;2 -->
<g id="edge12" class="edge">
<title>8&#45;&gt;2</title>
<path fill="none" stroke="black" d="M940.14,-76.99C1093.59,-66.91 1316.1,-51.67 1510.38,-36 1527,-34.66 1544.44,-33.17 1561.71,-31.65"/>
<polygon fill="black" stroke="black" points="1562.2,-35.12 1571.85,-30.75 1561.58,-28.15 1562.2,-35.12"/>
</g>
<!-- 9 -->
<g id="node10" class="node">
<title>9</title>
<ellipse fill="none" stroke="black" cx="659.38" cy="-18" rx="195.77" ry="18"/>
<text text-anchor="middle" x="659.38" y="-14.3" font-family="Times,serif" font-size="14.00">0x0000..0000:math_u256:checked_shlw</text>
</g>
<!-- 8&#45;&gt;9 -->
<g id="edge10" class="edge">
<title>8&#45;&gt;9</title>
<path fill="none" stroke="black" d="M729.87,-72.05C717.96,-63.09 703.16,-51.96 690.21,-42.2"/>
<polygon fill="black" stroke="black" points="692.1,-39.25 682.01,-36.03 687.89,-44.84 692.1,-39.25"/>
</g>
<!-- 10 -->
<g id="node11" class="node">
<title>10</title>
<ellipse fill="none" stroke="black" cx="1296.38" cy="-90" rx="254.25" ry="18"/>
<text text-anchor="middle" x="1296.38" y="-86.3" font-family="Times,serif" font-size="14.00">0x0000..0000:math_u256_oracle:div_round_wrapper</text>
</g>
<!-- 10&#45;&gt;1 -->
<g id="edge13" class="edge">
<title>10&#45;&gt;1</title>
<path fill="none" stroke="black" d="M1315.66,-71.7C1325.37,-62.99 1337.28,-52.29 1347.84,-42.82"/>
<polygon fill="black" stroke="black" points="1350.48,-45.15 1355.59,-35.86 1345.81,-39.94 1350.48,-45.15"/>
</g>
<!-- 10&#45;&gt;2 -->
<g id="edge14" class="edge">
<title>10&#45;&gt;2</title>
<path fill="none" stroke="black" d="M1387.15,-73.12C1451.14,-61.92 1536.67,-46.95 1601.55,-35.59"/>
<polygon fill="black" stroke="black" points="1602.53,-38.98 1611.78,-33.8 1601.33,-32.08 1602.53,-38.98"/>
</g>
<!-- 11 -->
<g id="node12" class="node">
<title>11</title>
<ellipse fill="none" stroke="black" cx="1051.38" cy="-18" rx="178.17" ry="18"/>
<text text-anchor="middle" x="1051.38" y="-14.3" font-family="Times,serif" font-size="14.00">0x0000..0000:math_u256:div_round</text>
</g>
<!-- 10&#45;&gt;11 -->
<g id="edge15" class="edge">
<title>10&#45;&gt;11</title>
<path fill="none" stroke="black" d="M1238.32,-72.41C1202.08,-62.06 1155.32,-48.7 1117.63,-37.93"/>
<polygon fill="black" stroke="black" points="1118.33,-34.49 1107.76,-35.11 1116.41,-41.22 1118.33,-34.49"/>
</g>
<!-- 12 -->
<g id="node13" class="node">
<title>12</title>
<ellipse fill="none" stroke="black" cx="2302.38" cy="-90" rx="256.15" ry="18"/>
<text text-anchor="middle" x="2302.38" y="-86.3" font-family="Times,serif" font-size="14.00">0x0000..0000:math_u256_oracle:add_check_wrapper</text>
</g>
<!-- 12&#45;&gt;1 -->
<g id="edge17" class="edge">
<title>12&#45;&gt;1</title>
<path fill="none" stroke="black" d="M2119.93,-77.32C1905.16,-63.49 1570.12,-41.61 1511.38,-36 1499.24,-34.84 1486.51,-33.47 1473.9,-32.02"/>
<polygon fill="black" stroke="black" points="1474.18,-28.53 1463.84,-30.84 1473.36,-35.48 1474.18,-28.53"/>
</g>
<!-- 12&#45;&gt;2 -->
<g id="edge18" class="edge">
<title>12&#45;&gt;2</title>
<path fill="none" stroke="black" d="M2175.34,-74.33C2070.38,-62.2 1922.3,-45.1 1818.67,-33.13"/>
<polygon fill="black" stroke="black" points="1818.8,-29.62 1808.47,-31.95 1818,-36.57 1818.8,-29.62"/>
</g>
<!-- 13 -->
<g id="node14" class="node">
<title>13</title>
<ellipse fill="none" stroke="black" cx="2395.38" cy="-18" rx="180.07" ry="18"/>
<text text-anchor="middle" x="2395.38" y="-14.3" font-family="Times,serif" font-size="14.00">0x0000..0000:math_u256:add_check</text>
</g>
<!-- 12&#45;&gt;13 -->
<g id="edge16" class="edge">
<title>12&#45;&gt;13</title>
<path fill="none" stroke="black" d="M2324.89,-72.05C2336.8,-63.09 2351.59,-51.96 2364.55,-42.2"/>
<polygon fill="black" stroke="black" points="2366.87,-44.84 2372.75,-36.03 2362.66,-39.25 2366.87,-44.84"/>
</g>
</g>
</svg>
