<?xml version="1.0" encoding="UTF-8" standalone="no"?>
<!DOCTYPE svg PUBLIC "-//W3C//DTD SVG 1.1//EN"
 "http://www.w3.org/Graphics/SVG/1.1/DTD/svg11.dtd">
<!-- Generated by graphviz version 2.43.0 (0)
 -->
<!-- Title: %3 Pages: 1 -->
<svg width="2755pt" height="392pt"
 viewBox="0.00 0.00 2754.80 392.00" xmlns="http://www.w3.org/2000/svg" xmlns:xlink="http://www.w3.org/1999/xlink">
<g id="graph0" class="graph" transform="scale(1 1) rotate(0) translate(4 388)">
<title>%3</title>
<polygon fill="white" stroke="transparent" points="-4,4 -4,-388 2750.8,-388 2750.8,4 -4,4"/>
<!-- 0 -->
<g id="node1" class="node">
<title>0</title>
<ellipse fill="none" stroke="black" cx="1505.37" cy="-366" rx="300.05" ry="18"/>
<text text-anchor="middle" x="1505.37" y="-362.3" font-family="Times,serif" font-size="14.00">Function(0x0000..0000::math_u256_oracle::div_mod_wrapper)</text>
</g>
<!-- 1 -->
<g id="node2" class="node">
<title>1</title>
<ellipse fill="none" stroke="black" cx="1505.37" cy="-279" rx="63.89" ry="18"/>
<text text-anchor="middle" x="1505.37" y="-275.3" font-family="Times,serif" font-size="14.00">Type(u256)</text>
</g>
<!-- 0&#45;&gt;1 -->
<g id="edge3" class="edge">
<title>0&#45;&gt;1</title>
<path fill="none" stroke="black" d="M1477.25,-347.86C1466.33,-338.88 1457.65,-327.22 1463.37,-315 1465.48,-310.51 1468.47,-306.39 1471.91,-302.69"/>
<polygon fill="black" stroke="black" points="1474.51,-305.05 1479.43,-295.66 1469.73,-299.93 1474.51,-305.05"/>
<text text-anchor="middle" x="1466.87" y="-318.8" font-family="Times,serif" font-size="14.00">r</text>
</g>
<!-- 0&#45;&gt;1 -->
<g id="edge4" class="edge">
<title>0&#45;&gt;1</title>
<path fill="none" stroke="black" d="M1498.83,-347.8C1497.01,-342.21 1495.28,-335.92 1494.37,-330 1493.21,-322.39 1494.09,-314.2 1495.77,-306.71"/>
<polygon fill="black" stroke="black" points="1499.15,-307.59 1498.43,-297.02 1492.4,-305.74 1499.15,-307.59"/>
<text text-anchor="middle" x="1497.87" y="-318.8" font-family="Times,serif" font-size="14.00">r</text>
</g>
<!-- 1&#45;&gt;0 -->
<g id="edge1" class="edge">
<title>1&#45;&gt;0</title>
<path fill="none" stroke="black" d="M1505.37,-297.18C1505.37,-308.81 1505.37,-324.42 1505.37,-337.73"/>
<polygon fill="black" stroke="black" points="1501.87,-337.8 1505.37,-347.8 1508.87,-337.8 1501.87,-337.8"/>
<text text-anchor="middle" x="1509.87" y="-318.8" font-family="Times,serif" font-size="14.00">v</text>
</g>
<!-- 1&#45;&gt;0 -->
<g id="edge2" class="edge">
<title>1&#45;&gt;0</title>
<path fill="none" stroke="black" d="M1513.11,-297.1C1515.26,-302.69 1517.3,-309 1518.37,-315 1519.73,-322.53 1518.74,-330.58 1516.82,-337.99"/>
<polygon fill="black" stroke="black" points="1513.47,-336.97 1513.75,-347.56 1520.13,-339.1 1513.47,-336.97"/>
<text text-anchor="middle" x="1523.87" y="-318.8" font-family="Times,serif" font-size="14.00">v</text>
</g>
<!-- 2 -->
<g id="node3" class="node">
<title>2</title>
<ellipse fill="none" stroke="black" cx="283.37" cy="-192" rx="283.25" ry="18"/>
<text text-anchor="middle" x="283.37" y="-188.3" font-family="Times,serif" font-size="14.00">Function(0x0000..0000::math_u256_oracle::shlw_wrapper)</text>
</g>
<!-- 1&#45;&gt;2 -->
<g id="edge5" class="edge">
<title>1&#45;&gt;2</title>
<path fill="none" stroke="black" d="M1444.04,-274.09C1345.17,-267.75 1144.42,-254.76 974.37,-243 803.76,-231.2 609.49,-217.09 470.49,-206.87"/>
<polygon fill="black" stroke="black" points="470.39,-203.35 460.16,-206.11 469.87,-210.33 470.39,-203.35"/>
<text text-anchor="middle" x="978.87" y="-231.8" font-family="Times,serif" font-size="14.00">v</text>
</g>
<!-- 3 -->
<g id="node4" class="node">
<title>3</title>
<ellipse fill="none" stroke="black" cx="869.37" cy="-192" rx="284.85" ry="18"/>
<text text-anchor="middle" x="869.37" y="-188.3" font-family="Times,serif" font-size="14.00">Function(0x0000..0000::math_u256_oracle::shrw_wrapper)</text>
</g>
<!-- 1&#45;&gt;3 -->
<g id="edge7" class="edge">
<title>1&#45;&gt;3</title>
<path fill="none" stroke="black" d="M1444.91,-273.17C1375.73,-267.35 1259.13,-256.63 1159.37,-243 1093.95,-234.06 1020.68,-221.41 964.15,-211.06"/>
<polygon fill="black" stroke="black" points="964.62,-207.59 954.15,-209.23 963.35,-214.48 964.62,-207.59"/>
<text text-anchor="middle" x="1163.87" y="-231.8" font-family="Times,serif" font-size="14.00">v</text>
</g>
<!-- 4 -->
<g id="node5" class="node">
<title>4</title>
<ellipse fill="none" stroke="black" cx="1535.37" cy="-192" rx="324.94" ry="18"/>
<text text-anchor="middle" x="1535.37" y="-188.3" font-family="Times,serif" font-size="14.00">Function(0x0000..0000::math_u256_oracle::checked_shlw_wrapper)</text>
</g>
<!-- 1&#45;&gt;4 -->
<g id="edge9" class="edge">
<title>1&#45;&gt;4</title>
<path fill="none" stroke="black" d="M1511.45,-260.8C1515.59,-249.05 1521.17,-233.24 1525.9,-219.84"/>
<polygon fill="black" stroke="black" points="1529.29,-220.77 1529.31,-210.18 1522.68,-218.44 1529.29,-220.77"/>
<text text-anchor="middle" x="1526.87" y="-231.8" font-family="Times,serif" font-size="14.00">v</text>
</g>
<!-- 6 -->
<g id="node7" class="node">
<title>6</title>
<ellipse fill="none" stroke="black" cx="2439.37" cy="-18" rx="307.35" ry="18"/>
<text text-anchor="middle" x="2439.37" y="-14.3" font-family="Times,serif" font-size="14.00">Function(0x0000..0000::math_u256_oracle::div_round_wrapper)</text>
</g>
<!-- 1&#45;&gt;6 -->
<g id="edge12" class="edge">
<title>1&#45;&gt;6</title>
<path fill="none" stroke="black" d="M1442.05,-276.71C1333.73,-272.36 1131.06,-253.67 1201.37,-174 1267.05,-99.59 1873.19,-52.28 2212.29,-31.41"/>
<polygon fill="black" stroke="black" points="2212.73,-34.89 2222.5,-30.78 2212.3,-27.9 2212.73,-34.89"/>
<text text-anchor="middle" x="1269.87" y="-144.8" font-family="Times,serif" font-size="14.00">v</text>
</g>
<!-- 1&#45;&gt;6 -->
<g id="edge13" class="edge">
<title>1&#45;&gt;6</title>
<path fill="none" stroke="black" d="M1569.2,-278.59C1779.58,-279.85 2441.52,-278.34 2505.37,-210 2549.74,-162.51 2495.35,-83.74 2461.88,-43.83"/>
<polygon fill="black" stroke="black" points="2464.47,-41.47 2455.31,-36.15 2459.16,-46.02 2464.47,-41.47"/>
<text text-anchor="middle" x="2524.87" y="-144.8" font-family="Times,serif" font-size="14.00">v</text>
</g>
<!-- 7 -->
<g id="node8" class="node">
<title>7</title>
<ellipse fill="none" stroke="black" cx="2187.37" cy="-192" rx="309.25" ry="18"/>
<text text-anchor="middle" x="2187.37" y="-188.3" font-family="Times,serif" font-size="14.00">Function(0x0000..0000::math_u256_oracle::add_check_wrapper)</text>
</g>
<!-- 1&#45;&gt;7 -->
<g id="edge16" class="edge">
<title>1&#45;&gt;7</title>
<path fill="none" stroke="black" d="M1560.35,-269.75C1630.39,-259.36 1755.24,-241.27 1862.37,-228 1916.87,-221.25 1976.6,-214.6 2029.83,-208.95"/>
<polygon fill="black" stroke="black" points="2030.46,-212.4 2040.03,-207.86 2029.72,-205.44 2030.46,-212.4"/>
<text text-anchor="middle" x="1866.87" y="-231.8" font-family="Times,serif" font-size="14.00">v</text>
</g>
<!-- 1&#45;&gt;7 -->
<g id="edge17" class="edge">
<title>1&#45;&gt;7</title>
<path fill="none" stroke="black" d="M1566.05,-273.35C1638.76,-267.51 1764.2,-256.59 1871.37,-243 1942.75,-233.95 2022.81,-221.26 2084.48,-210.92"/>
<polygon fill="black" stroke="black" points="2085.32,-214.33 2094.6,-209.22 2084.16,-207.43 2085.32,-214.33"/>
<text text-anchor="middle" x="1979.87" y="-231.8" font-family="Times,serif" font-size="14.00">v</text>
</g>
<!-- 2&#45;&gt;1 -->
<g id="edge6" class="edge">
<title>2&#45;&gt;1</title>
<path fill="none" stroke="black" d="M407.91,-208.22C502.97,-219.34 637.26,-234 755.37,-243 1003.02,-261.88 1297.5,-272.04 1431.91,-276.01"/>
<polygon fill="black" stroke="black" points="1431.99,-279.51 1442.08,-276.31 1432.19,-272.51 1431.99,-279.51"/>
<text text-anchor="middle" x="758.87" y="-231.8" font-family="Times,serif" font-size="14.00">r</text>
</g>
<!-- 3&#45;&gt;1 -->
<g id="edge8" class="edge">
<title>3&#45;&gt;1</title>
<path fill="none" stroke="black" d="M920.74,-209.75C957.32,-220.99 1007.87,-235.13 1053.37,-243 1185.55,-265.87 1342.07,-273.8 1431.94,-276.55"/>
<polygon fill="black" stroke="black" points="1431.93,-280.05 1442.03,-276.84 1432.13,-273.05 1431.93,-280.05"/>
<text text-anchor="middle" x="1056.87" y="-231.8" font-family="Times,serif" font-size="14.00">r</text>
</g>
<!-- 4&#45;&gt;1 -->
<g id="edge10" class="edge">
<title>4&#45;&gt;1</title>
<path fill="none" stroke="black" d="M1518.81,-210.27C1514.68,-215.56 1510.74,-221.68 1508.37,-228 1505.72,-235.08 1504.52,-243.13 1504.1,-250.66"/>
<polygon fill="black" stroke="black" points="1500.6,-250.77 1503.95,-260.82 1507.6,-250.87 1500.6,-250.77"/>
<text text-anchor="middle" x="1511.87" y="-231.8" font-family="Times,serif" font-size="14.00">r</text>
</g>
<!-- 5 -->
<g id="node6" class="node">
<title>5</title>
<ellipse fill="none" stroke="black" cx="2187.37" cy="-105" rx="59.59" ry="18"/>
<text text-anchor="middle" x="2187.37" y="-101.3" font-family="Times,serif" font-size="14.00">Type(bool)</text>
</g>
<!-- 4&#45;&gt;5 -->
<g id="edge11" class="edge">
<title>4&#45;&gt;5</title>
<path fill="none" stroke="black" d="M1656.1,-175.26C1794.29,-157.25 2015.43,-128.42 2123.61,-114.31"/>
<polygon fill="black" stroke="black" points="2124.25,-117.76 2133.71,-113 2123.35,-110.82 2124.25,-117.76"/>
<text text-anchor="middle" x="1903.87" y="-144.8" font-family="Times,serif" font-size="14.00">r</text>
</g>
<!-- 5&#45;&gt;6 -->
<g id="edge14" class="edge">
<title>5&#45;&gt;6</title>
<path fill="none" stroke="black" d="M2225.65,-91.09C2266.61,-77.27 2332.13,-55.17 2379.84,-39.08"/>
<polygon fill="black" stroke="black" points="2381.08,-42.36 2389.43,-35.85 2378.84,-35.73 2381.08,-42.36"/>
<text text-anchor="middle" x="2332.87" y="-57.8" font-family="Times,serif" font-size="14.00">v</text>
</g>
<!-- 6&#45;&gt;1 -->
<g id="edge15" class="edge">
<title>6&#45;&gt;1</title>
<path fill="none" stroke="black" d="M2466.62,-36.06C2474.31,-41.4 2482.46,-47.59 2489.37,-54 2521.14,-83.47 2526.79,-98.17 2533.37,-141 2538.05,-171.43 2545.6,-185.19 2527.37,-210 2505.82,-239.35 2487.87,-234.85 2452.37,-243 2368.36,-262.29 1787.17,-273.46 1579.19,-276.87"/>
<polygon fill="black" stroke="black" points="1578.92,-273.37 1568.98,-277.03 1579.03,-280.37 1578.92,-273.37"/>
<text text-anchor="middle" x="2538.87" y="-144.8" font-family="Times,serif" font-size="14.00">r</text>
</g>
<!-- 7&#45;&gt;5 -->
<g id="edge18" class="edge">
<title>7&#45;&gt;5</title>
<path fill="none" stroke="black" d="M2187.37,-173.8C2187.37,-162.16 2187.37,-146.55 2187.37,-133.24"/>
<polygon fill="black" stroke="black" points="2190.87,-133.18 2187.37,-123.18 2183.87,-133.18 2190.87,-133.18"/>
<text text-anchor="middle" x="2190.87" y="-144.8" font-family="Times,serif" font-size="14.00">r</text>
</g>
</g>
</svg>
